{
  "asset": {
    "version": "2.0",
    "generator": "codex"
  },
  "buffers": [
    {
      "byteLength": 960,
      "uri": "HaloTube.bin"
    }
  ],
  "bufferViews": [
    {
      "buffer": 0,
      "byteOffset": 0,
      "byteLength": 768,
      "target": 34962
    },
    {
      "buffer": 0,
      "byteOffset": 768,
      "byteLength": 192,
      "target": 34963
    }
  ],
  "accessors": [
    {
      "bufferView": 0,
      "componentType": 5126,
      "count": 64,
      "type": "VEC3",
      "min": [
        -0.5,
        -0.2,
        -0.5
      ],
      "max": [
        0.5,
        0.2,
        0.5
      ]
    },
    {
      "bufferView": 1,
      "componentType": 5123,
      "count": 96,
      "type": "SCALAR"
    }
  ],
  "meshes": [
    {
      "primitives": [
        {
          "attributes": {
            "POSITION": 0
          },
          "indices": 1
        }
      ]
    }
  ],
  "nodes": [
    {
      "mesh": 0,
      "name": "HaloTube"
    }
  ],
  "scenes": [
    {
      "nodes": [
        0
      ]
    }
  ],
  "scene": 0
}